<svg xmlns="http://www.w3.org/2000/svg" viewBox="0 0 1280 1320" width="320mm" height="330mm" color="#111" font-family="Arial, sans-serif"><rect width="1280" height="1320" fill="white"/><text x="10" y="26" font-size="20">Original pictograms — grayscale review 5 / 6 — 8, 15 and 25 mm</text><g transform="translate(0 55)"><rect x="1" y="1" width="318" height="206" fill="white" stroke="#aaa" stroke-width="1"/><text x="10" y="19" font-size="12">routines.object.soap</text><text x="10" y="36" font-size="12">Soap / Seife</text><svg x="20" y="50" width="32" height="32" viewBox="0 0 24 24" fill="none" stroke="currentColor" stroke-width="2" stroke-linecap="round" stroke-linejoin="round"><rect x="3" y="11" width="17" height="10" rx="3"/><path d="M6 14h10M6 18h6"/><circle cx="7" cy="6" r="2"/><circle cx="15" cy="4" r="2"/><circle cx="20" cy="8" r="1"/></svg><text x="20" y="167" font-size="11">8 mm</text><svg x="100" y="50" width="60" height="60" viewBox="0 0 24 24" fill="none" stroke="currentColor" stroke-width="2" stroke-linecap="round" stroke-linejoin="round"><rect x="3" y="11" width="17" height="10" rx="3"/><path d="M6 14h10M6 18h6"/><circle cx="7" cy="6" r="2"/><circle cx="15" cy="4" r="2"/><circle cx="20" cy="8" r="1"/></svg><text x="100" y="167" font-size="11">15 mm</text><svg x="205" y="50" width="100" height="100" viewBox="0 0 24 24" fill="none" stroke="currentColor" stroke-width="2" stroke-linecap="round" stroke-linejoin="round"><rect x="3" y="11" width="17" height="10" rx="3"/><path d="M6 14h10M6 18h6"/><circle cx="7" cy="6" r="2"/><circle cx="15" cy="4" r="2"/><circle cx="20" cy="8" r="1"/></svg><text x="205" y="167" font-size="11">25 mm</text><text x="10" y="193" font-size="10">Original: routines.object.soap.svg</text></g><g transform="translate(320 55)"><rect x="1" y="1" width="318" height="206" fill="white" stroke="#aaa" stroke-width="1"/><text x="10" y="19" font-size="12">routines.object.towel</text><text x="10" y="36" font-size="12">Towel / Handtuch</text><svg x="20" y="50" width="32" height="32" viewBox="0 0 24 24" fill="none" stroke="currentColor" stroke-width="2" stroke-linecap="round" stroke-linejoin="round"><path d="M3 5h18M6 5v16h12V5M6 16h12M8 19h1M12 19h1M16 19h1"/></svg><text x="20" y="167" font-size="11">8 mm</text><svg x="100" y="50" width="60" height="60" viewBox="0 0 24 24" fill="none" stroke="currentColor" stroke-width="2" stroke-linecap="round" stroke-linejoin="round"><path d="M3 5h18M6 5v16h12V5M6 16h12M8 19h1M12 19h1M16 19h1"/></svg><text x="100" y="167" font-size="11">15 mm</text><svg x="205" y="50" width="100" height="100" viewBox="0 0 24 24" fill="none" stroke="currentColor" stroke-width="2" stroke-linecap="round" stroke-linejoin="round"><path d="M3 5h18M6 5v16h12V5M6 16h12M8 19h1M12 19h1M16 19h1"/></svg><text x="205" y="167" font-size="11">25 mm</text><text x="10" y="193" font-size="10">Original: routines.object.towel.svg</text></g><g transform="translate(640 55)"><rect x="1" y="1" width="318" height="206" fill="white" stroke="#aaa" stroke-width="1"/><text x="10" y="19" font-size="12">routines.object.toothbrush</text><text x="10" y="36" font-size="12">Toothbrush / Zahnbürste</text><svg x="20" y="50" width="32" height="32" viewBox="0 0 24 24" fill="none" stroke="currentColor" stroke-width="2" stroke-linecap="round" stroke-linejoin="round"><path d="M4 21l7-10 2 1-7 10zM11 11l5-8h5v4l-6 7zM15 6l4 3M17 3l4 3M13 9l4 3"/></svg><text x="20" y="167" font-size="11">8 mm</text><svg x="100" y="50" width="60" height="60" viewBox="0 0 24 24" fill="none" stroke="currentColor" stroke-width="2" stroke-linecap="round" stroke-linejoin="round"><path d="M4 21l7-10 2 1-7 10zM11 11l5-8h5v4l-6 7zM15 6l4 3M17 3l4 3M13 9l4 3"/></svg><text x="100" y="167" font-size="11">15 mm</text><svg x="205" y="50" width="100" height="100" viewBox="0 0 24 24" fill="none" stroke="currentColor" stroke-width="2" stroke-linecap="round" stroke-linejoin="round"><path d="M4 21l7-10 2 1-7 10zM11 11l5-8h5v4l-6 7zM15 6l4 3M17 3l4 3M13 9l4 3"/></svg><text x="205" y="167" font-size="11">25 mm</text><text x="10" y="193" font-size="10">Original: routines.object.toothbrush.svg</text></g><g transform="translate(960 55)"><rect x="1" y="1" width="318" height="206" fill="white" stroke="#aaa" stroke-width="1"/><text x="10" y="19" font-size="12">routines.object.clothes</text><text x="10" y="36" font-size="12">Clothes / Kleidung</text><svg x="20" y="50" width="32" height="32" viewBox="0 0 24 24" fill="none" stroke="currentColor" stroke-width="2" stroke-linecap="round" stroke-linejoin="round"><path d="M8 3l4 3 4-3 6 4-3 4-2-1v11H7V10l-2 1-3-4z"/></svg><text x="20" y="167" font-size="11">8 mm</text><svg x="100" y="50" width="60" height="60" viewBox="0 0 24 24" fill="none" stroke="currentColor" stroke-width="2" stroke-linecap="round" stroke-linejoin="round"><path d="M8 3l4 3 4-3 6 4-3 4-2-1v11H7V10l-2 1-3-4z"/></svg><text x="100" y="167" font-size="11">15 mm</text><svg x="205" y="50" width="100" height="100" viewBox="0 0 24 24" fill="none" stroke="currentColor" stroke-width="2" stroke-linecap="round" stroke-linejoin="round"><path d="M8 3l4 3 4-3 6 4-3 4-2-1v11H7V10l-2 1-3-4z"/></svg><text x="205" y="167" font-size="11">25 mm</text><text x="10" y="193" font-size="10">Original: routines.object.clothes.svg</text></g><g transform="translate(0 263)"><rect x="1" y="1" width="318" height="206" fill="white" stroke="#aaa" stroke-width="1"/><text x="10" y="19" font-size="12">routines.object.cup</text><text x="10" y="36" font-size="12">Cup / Becher</text><svg x="20" y="50" width="32" height="32" viewBox="0 0 24 24" fill="none" stroke="currentColor" stroke-width="2" stroke-linecap="round" stroke-linejoin="round"><path d="M4 4h13v13c0 6-13 6-13 0zM17 6h3c3 0 3 9-3 9M4 8h13"/></svg><text x="20" y="167" font-size="11">8 mm</text><svg x="100" y="50" width="60" height="60" viewBox="0 0 24 24" fill="none" stroke="currentColor" stroke-width="2" stroke-linecap="round" stroke-linejoin="round"><path d="M4 4h13v13c0 6-13 6-13 0zM17 6h3c3 0 3 9-3 9M4 8h13"/></svg><text x="100" y="167" font-size="11">15 mm</text><svg x="205" y="50" width="100" height="100" viewBox="0 0 24 24" fill="none" stroke="currentColor" stroke-width="2" stroke-linecap="round" stroke-linejoin="round"><path d="M4 4h13v13c0 6-13 6-13 0zM17 6h3c3 0 3 9-3 9M4 8h13"/></svg><text x="205" y="167" font-size="11">25 mm</text><text x="10" y="193" font-size="10">Original: routines.object.cup.svg</text></g><g transform="translate(320 263)"><rect x="1" y="1" width="318" height="206" fill="white" stroke="#aaa" stroke-width="1"/><text x="10" y="19" font-size="12">routines.object.plate</text><text x="10" y="36" font-size="12">Plate / Teller</text><svg x="20" y="50" width="32" height="32" viewBox="0 0 24 24" fill="none" stroke="currentColor" stroke-width="2" stroke-linecap="round" stroke-linejoin="round"><circle cx="12" cy="12" r="9"/><circle cx="12" cy="12" r="6"/><path d="M8 9c1-2 4-3 6-2"/></svg><text x="20" y="167" font-size="11">8 mm</text><svg x="100" y="50" width="60" height="60" viewBox="0 0 24 24" fill="none" stroke="currentColor" stroke-width="2" stroke-linecap="round" stroke-linejoin="round"><circle cx="12" cy="12" r="9"/><circle cx="12" cy="12" r="6"/><path d="M8 9c1-2 4-3 6-2"/></svg><text x="100" y="167" font-size="11">15 mm</text><svg x="205" y="50" width="100" height="100" viewBox="0 0 24 24" fill="none" stroke="currentColor" stroke-width="2" stroke-linecap="round" stroke-linejoin="round"><circle cx="12" cy="12" r="9"/><circle cx="12" cy="12" r="6"/><path d="M8 9c1-2 4-3 6-2"/></svg><text x="205" y="167" font-size="11">25 mm</text><text x="10" y="193" font-size="10">Original: routines.object.plate.svg</text></g><g transform="translate(640 263)"><rect x="1" y="1" width="318" height="206" fill="white" stroke="#aaa" stroke-width="1"/><text x="10" y="19" font-size="12">routines.object.chair</text><text x="10" y="36" font-size="12">Chair / Stuhl</text><svg x="20" y="50" width="32" height="32" viewBox="0 0 24 24" fill="none" stroke="currentColor" stroke-width="2" stroke-linecap="round" stroke-linejoin="round"><path d="M6 3h12v10H6zM5 13h14v4H5zM6 17v5M18 17v5M9 6h6"/></svg><text x="20" y="167" font-size="11">8 mm</text><svg x="100" y="50" width="60" height="60" viewBox="0 0 24 24" fill="none" stroke="currentColor" stroke-width="2" stroke-linecap="round" stroke-linejoin="round"><path d="M6 3h12v10H6zM5 13h14v4H5zM6 17v5M18 17v5M9 6h6"/></svg><text x="100" y="167" font-size="11">15 mm</text><svg x="205" y="50" width="100" height="100" viewBox="0 0 24 24" fill="none" stroke="currentColor" stroke-width="2" stroke-linecap="round" stroke-linejoin="round"><path d="M6 3h12v10H6zM5 13h14v4H5zM6 17v5M18 17v5M9 6h6"/></svg><text x="205" y="167" font-size="11">25 mm</text><text x="10" y="193" font-size="10">Original: routines.object.chair.svg</text></g><g transform="translate(960 263)"><rect x="1" y="1" width="318" height="206" fill="white" stroke="#aaa" stroke-width="1"/><text x="10" y="19" font-size="12">routines.object.bed</text><text x="10" y="36" font-size="12">Bed / Bett</text><svg x="20" y="50" width="32" height="32" viewBox="0 0 24 24" fill="none" stroke="currentColor" stroke-width="2" stroke-linecap="round" stroke-linejoin="round"><path d="M3 7v15M21 12v10M3 17h18M3 11h18v6M6 11V8h6v3M12 11h9"/></svg><text x="20" y="167" font-size="11">8 mm</text><svg x="100" y="50" width="60" height="60" viewBox="0 0 24 24" fill="none" stroke="currentColor" stroke-width="2" stroke-linecap="round" stroke-linejoin="round"><path d="M3 7v15M21 12v10M3 17h18M3 11h18v6M6 11V8h6v3M12 11h9"/></svg><text x="100" y="167" font-size="11">15 mm</text><svg x="205" y="50" width="100" height="100" viewBox="0 0 24 24" fill="none" stroke="currentColor" stroke-width="2" stroke-linecap="round" stroke-linejoin="round"><path d="M3 7v15M21 12v10M3 17h18M3 11h18v6M6 11V8h6v3M12 11h9"/></svg><text x="205" y="167" font-size="11">25 mm</text><text x="10" y="193" font-size="10">Original: routines.object.bed.svg</text></g><g transform="translate(0 471)"><rect x="1" y="1" width="318" height="206" fill="white" stroke="#aaa" stroke-width="1"/><text x="10" y="19" font-size="12">routines.tool.cleaning-cloth</text><text x="10" y="36" font-size="12">Cleaning cloth / Putztuch</text><svg x="20" y="50" width="32" height="32" viewBox="0 0 24 24" fill="none" stroke="currentColor" stroke-width="2" stroke-linecap="round" stroke-linejoin="round"><path d="M3 6h17l1 13H5zM5 19l-2 2h18v-2M7 8l2 8M13 8l2 8M5 12h13"/></svg><text x="20" y="167" font-size="11">8 mm</text><svg x="100" y="50" width="60" height="60" viewBox="0 0 24 24" fill="none" stroke="currentColor" stroke-width="2" stroke-linecap="round" stroke-linejoin="round"><path d="M3 6h17l1 13H5zM5 19l-2 2h18v-2M7 8l2 8M13 8l2 8M5 12h13"/></svg><text x="100" y="167" font-size="11">15 mm</text><svg x="205" y="50" width="100" height="100" viewBox="0 0 24 24" fill="none" stroke="currentColor" stroke-width="2" stroke-linecap="round" stroke-linejoin="round"><path d="M3 6h17l1 13H5zM5 19l-2 2h18v-2M7 8l2 8M13 8l2 8M5 12h13"/></svg><text x="205" y="167" font-size="11">25 mm</text><text x="10" y="193" font-size="10">Original: routines.tool.cleaning-cloth.svg</text></g><g transform="translate(320 471)"><rect x="1" y="1" width="318" height="206" fill="white" stroke="#aaa" stroke-width="1"/><text x="10" y="19" font-size="12">routines.tool.gloves</text><text x="10" y="36" font-size="12">Gloves / Handschuhe</text><svg x="20" y="50" width="32" height="32" viewBox="0 0 24 24" fill="none" stroke="currentColor" stroke-width="2" stroke-linecap="round" stroke-linejoin="round"><path d="M3 21v-8l2-5 1 5V4h2v8V3h2v9V4h2v9l2-2 2 1-3 9zM16 5h3v8l2 1v7h-6M17 8h2"/></svg><text x="20" y="167" font-size="11">8 mm</text><svg x="100" y="50" width="60" height="60" viewBox="0 0 24 24" fill="none" stroke="currentColor" stroke-width="2" stroke-linecap="round" stroke-linejoin="round"><path d="M3 21v-8l2-5 1 5V4h2v8V3h2v9V4h2v9l2-2 2 1-3 9zM16 5h3v8l2 1v7h-6M17 8h2"/></svg><text x="100" y="167" font-size="11">15 mm</text><svg x="205" y="50" width="100" height="100" viewBox="0 0 24 24" fill="none" stroke="currentColor" stroke-width="2" stroke-linecap="round" stroke-linejoin="round"><path d="M3 21v-8l2-5 1 5V4h2v8V3h2v9V4h2v9l2-2 2 1-3 9zM16 5h3v8l2 1v7h-6M17 8h2"/></svg><text x="205" y="167" font-size="11">25 mm</text><text x="10" y="193" font-size="10">Original: routines.tool.gloves.svg</text></g><g transform="translate(640 471)"><rect x="1" y="1" width="318" height="206" fill="white" stroke="#aaa" stroke-width="1"/><text x="10" y="19" font-size="12">routines.object.bin</text><text x="10" y="36" font-size="12">Bin / Mülleimer</text><svg x="20" y="50" width="32" height="32" viewBox="0 0 24 24" fill="none" stroke="currentColor" stroke-width="2" stroke-linecap="round" stroke-linejoin="round"><path d="M5 7h14l-1 14H6zM3 7h18M9 7V3h6v4M9 11v6M15 11v6"/></svg><text x="20" y="167" font-size="11">8 mm</text><svg x="100" y="50" width="60" height="60" viewBox="0 0 24 24" fill="none" stroke="currentColor" stroke-width="2" stroke-linecap="round" stroke-linejoin="round"><path d="M5 7h14l-1 14H6zM3 7h18M9 7V3h6v4M9 11v6M15 11v6"/></svg><text x="100" y="167" font-size="11">15 mm</text><svg x="205" y="50" width="100" height="100" viewBox="0 0 24 24" fill="none" stroke="currentColor" stroke-width="2" stroke-linecap="round" stroke-linejoin="round"><path d="M5 7h14l-1 14H6zM3 7h18M9 7V3h6v4M9 11v6M15 11v6"/></svg><text x="205" y="167" font-size="11">25 mm</text><text x="10" y="193" font-size="10">Original: routines.object.bin.svg</text></g><g transform="translate(960 471)"><rect x="1" y="1" width="318" height="206" fill="white" stroke="#aaa" stroke-width="1"/><text x="10" y="19" font-size="12">routines.object.toilet</text><text x="10" y="36" font-size="12">Toilet / Toilette</text><svg x="20" y="50" width="32" height="32" viewBox="0 0 24 24" fill="none" stroke="currentColor" stroke-width="2" stroke-linecap="round" stroke-linejoin="round"><path d="M12 3h9v10h-9zM3 13h18c0 5-11 6-14 3M6 16v5h12l-2-5M16 6h2"/></svg><text x="20" y="167" font-size="11">8 mm</text><svg x="100" y="50" width="60" height="60" viewBox="0 0 24 24" fill="none" stroke="currentColor" stroke-width="2" stroke-linecap="round" stroke-linejoin="round"><path d="M12 3h9v10h-9zM3 13h18c0 5-11 6-14 3M6 16v5h12l-2-5M16 6h2"/></svg><text x="100" y="167" font-size="11">15 mm</text><svg x="205" y="50" width="100" height="100" viewBox="0 0 24 24" fill="none" stroke="currentColor" stroke-width="2" stroke-linecap="round" stroke-linejoin="round"><path d="M12 3h9v10h-9zM3 13h18c0 5-11 6-14 3M6 16v5h12l-2-5M16 6h2"/></svg><text x="205" y="167" font-size="11">25 mm</text><text x="10" y="193" font-size="10">Original: routines.object.toilet.svg</text></g><g transform="translate(0 679)"><rect x="1" y="1" width="318" height="206" fill="white" stroke="#aaa" stroke-width="1"/><text x="10" y="19" font-size="12">learning.action.read</text><text x="10" y="36" font-size="12">Read / Lesen</text><svg x="20" y="50" width="32" height="32" viewBox="0 0 24 24" fill="none" stroke="currentColor" stroke-width="2" stroke-linecap="round" stroke-linejoin="round"><path d="M3 10c3-2 6-2 9 0 3-2 6-2 9 0v11c-3-2-6-2-9 0-3-2-6-2-9 0zM12 10v11M7 3h10M7 3l2 3M17 3l-2 3"/></svg><text x="20" y="167" font-size="11">8 mm</text><svg x="100" y="50" width="60" height="60" viewBox="0 0 24 24" fill="none" stroke="currentColor" stroke-width="2" stroke-linecap="round" stroke-linejoin="round"><path d="M3 10c3-2 6-2 9 0 3-2 6-2 9 0v11c-3-2-6-2-9 0-3-2-6-2-9 0zM12 10v11M7 3h10M7 3l2 3M17 3l-2 3"/></svg><text x="100" y="167" font-size="11">15 mm</text><svg x="205" y="50" width="100" height="100" viewBox="0 0 24 24" fill="none" stroke="currentColor" stroke-width="2" stroke-linecap="round" stroke-linejoin="round"><path d="M3 10c3-2 6-2 9 0 3-2 6-2 9 0v11c-3-2-6-2-9 0-3-2-6-2-9 0zM12 10v11M7 3h10M7 3l2 3M17 3l-2 3"/></svg><text x="205" y="167" font-size="11">25 mm</text><text x="10" y="193" font-size="10">Original: learning.action.read.svg</text></g><g transform="translate(320 679)"><rect x="1" y="1" width="318" height="206" fill="white" stroke="#aaa" stroke-width="1"/><text x="10" y="19" font-size="12">learning.action.write</text><text x="10" y="36" font-size="12">Write / Schreiben</text><svg x="20" y="50" width="32" height="32" viewBox="0 0 24 24" fill="none" stroke="currentColor" stroke-width="2" stroke-linecap="round" stroke-linejoin="round"><path d="M3 6h10v15H3zM6 11h4M6 15h4M12 17l6-13 3 2-6 13-4 2zM17 7l3 1"/></svg><text x="20" y="167" font-size="11">8 mm</text><svg x="100" y="50" width="60" height="60" viewBox="0 0 24 24" fill="none" stroke="currentColor" stroke-width="2" stroke-linecap="round" stroke-linejoin="round"><path d="M3 6h10v15H3zM6 11h4M6 15h4M12 17l6-13 3 2-6 13-4 2zM17 7l3 1"/></svg><text x="100" y="167" font-size="11">15 mm</text><svg x="205" y="50" width="100" height="100" viewBox="0 0 24 24" fill="none" stroke="currentColor" stroke-width="2" stroke-linecap="round" stroke-linejoin="round"><path d="M3 6h10v15H3zM6 11h4M6 15h4M12 17l6-13 3 2-6 13-4 2zM17 7l3 1"/></svg><text x="205" y="167" font-size="11">25 mm</text><text x="10" y="193" font-size="10">Original: learning.action.write.svg</text></g><g transform="translate(640 679)"><rect x="1" y="1" width="318" height="206" fill="white" stroke="#aaa" stroke-width="1"/><text x="10" y="19" font-size="12">learning.action.draw</text><text x="10" y="36" font-size="12">Draw / Zeichnen</text><svg x="20" y="50" width="32" height="32" viewBox="0 0 24 24" fill="none" stroke="currentColor" stroke-width="2" stroke-linecap="round" stroke-linejoin="round"><path d="M3 5h14v16H3zM6 17l3-5 4 4M14 15l5-12 2 1-5 12-3 2z"/><circle cx="8" cy="9" r="1"/></svg><text x="20" y="167" font-size="11">8 mm</text><svg x="100" y="50" width="60" height="60" viewBox="0 0 24 24" fill="none" stroke="currentColor" stroke-width="2" stroke-linecap="round" stroke-linejoin="round"><path d="M3 5h14v16H3zM6 17l3-5 4 4M14 15l5-12 2 1-5 12-3 2z"/><circle cx="8" cy="9" r="1"/></svg><text x="100" y="167" font-size="11">15 mm</text><svg x="205" y="50" width="100" height="100" viewBox="0 0 24 24" fill="none" stroke="currentColor" stroke-width="2" stroke-linecap="round" stroke-linejoin="round"><path d="M3 5h14v16H3zM6 17l3-5 4 4M14 15l5-12 2 1-5 12-3 2z"/><circle cx="8" cy="9" r="1"/></svg><text x="205" y="167" font-size="11">25 mm</text><text x="10" y="193" font-size="10">Original: learning.action.draw.svg</text></g><g transform="translate(960 679)"><rect x="1" y="1" width="318" height="206" fill="white" stroke="#aaa" stroke-width="1"/><text x="10" y="19" font-size="12">learning.action.paint</text><text x="10" y="36" font-size="12">Paint / Malen</text><svg x="20" y="50" width="32" height="32" viewBox="0 0 24 24" fill="none" stroke="currentColor" stroke-width="2" stroke-linecap="round" stroke-linejoin="round"><path d="M3 7h14v14H3zM7 15c-3-5 7-6 5 0M14 12l5-9 3 2-6 9M14 12c-3 1-1 5-4 5 5 1 7-2 6-3"/></svg><text x="20" y="167" font-size="11">8 mm</text><svg x="100" y="50" width="60" height="60" viewBox="0 0 24 24" fill="none" stroke="currentColor" stroke-width="2" stroke-linecap="round" stroke-linejoin="round"><path d="M3 7h14v14H3zM7 15c-3-5 7-6 5 0M14 12l5-9 3 2-6 9M14 12c-3 1-1 5-4 5 5 1 7-2 6-3"/></svg><text x="100" y="167" font-size="11">15 mm</text><svg x="205" y="50" width="100" height="100" viewBox="0 0 24 24" fill="none" stroke="currentColor" stroke-width="2" stroke-linecap="round" stroke-linejoin="round"><path d="M3 7h14v14H3zM7 15c-3-5 7-6 5 0M14 12l5-9 3 2-6 9M14 12c-3 1-1 5-4 5 5 1 7-2 6-3"/></svg><text x="205" y="167" font-size="11">25 mm</text><text x="10" y="193" font-size="10">Original: learning.action.paint.svg</text></g><g transform="translate(0 887)"><rect x="1" y="1" width="318" height="206" fill="white" stroke="#aaa" stroke-width="1"/><text x="10" y="19" font-size="12">learning.action.cut</text><text x="10" y="36" font-size="12">Cut / Schneiden</text><svg x="20" y="50" width="32" height="32" viewBox="0 0 24 24" fill="none" stroke="currentColor" stroke-width="2" stroke-linecap="round" stroke-linejoin="round"><circle cx="6" cy="17" r="3"/><circle cx="12" cy="17" r="3"/><path d="M7 14l10-11M11 14L5 3M15 10h6M18 8v4"/></svg><text x="20" y="167" font-size="11">8 mm</text><svg x="100" y="50" width="60" height="60" viewBox="0 0 24 24" fill="none" stroke="currentColor" stroke-width="2" stroke-linecap="round" stroke-linejoin="round"><circle cx="6" cy="17" r="3"/><circle cx="12" cy="17" r="3"/><path d="M7 14l10-11M11 14L5 3M15 10h6M18 8v4"/></svg><text x="100" y="167" font-size="11">15 mm</text><svg x="205" y="50" width="100" height="100" viewBox="0 0 24 24" fill="none" stroke="currentColor" stroke-width="2" stroke-linecap="round" stroke-linejoin="round"><circle cx="6" cy="17" r="3"/><circle cx="12" cy="17" r="3"/><path d="M7 14l10-11M11 14L5 3M15 10h6M18 8v4"/></svg><text x="205" y="167" font-size="11">25 mm</text><text x="10" y="193" font-size="10">Original: learning.action.cut.svg</text></g><g transform="translate(320 887)"><rect x="1" y="1" width="318" height="206" fill="white" stroke="#aaa" stroke-width="1"/><text x="10" y="19" font-size="12">learning.action.glue</text><text x="10" y="36" font-size="12">Glue / Kleben</text><svg x="20" y="50" width="32" height="32" viewBox="0 0 24 24" fill="none" stroke="currentColor" stroke-width="2" stroke-linecap="round" stroke-linejoin="round"><path d="M3 15h12v6H3zM8 4l8-1 2 9-8 1zM10 13l1 3M18 16h4M20 14v4M9 7l7-1"/></svg><text x="20" y="167" font-size="11">8 mm</text><svg x="100" y="50" width="60" height="60" viewBox="0 0 24 24" fill="none" stroke="currentColor" stroke-width="2" stroke-linecap="round" stroke-linejoin="round"><path d="M3 15h12v6H3zM8 4l8-1 2 9-8 1zM10 13l1 3M18 16h4M20 14v4M9 7l7-1"/></svg><text x="100" y="167" font-size="11">15 mm</text><svg x="205" y="50" width="100" height="100" viewBox="0 0 24 24" fill="none" stroke="currentColor" stroke-width="2" stroke-linecap="round" stroke-linejoin="round"><path d="M3 15h12v6H3zM8 4l8-1 2 9-8 1zM10 13l1 3M18 16h4M20 14v4M9 7l7-1"/></svg><text x="205" y="167" font-size="11">25 mm</text><text x="10" y="193" font-size="10">Original: learning.action.glue.svg</text></g><g transform="translate(640 887)"><rect x="1" y="1" width="318" height="206" fill="white" stroke="#aaa" stroke-width="1"/><text x="10" y="19" font-size="12">learning.action.listen</text><text x="10" y="36" font-size="12">Listen / Zuhören</text><svg x="20" y="50" width="32" height="32" viewBox="0 0 24 24" fill="none" stroke="currentColor" stroke-width="2" stroke-linecap="round" stroke-linejoin="round"><path d="M12 18c-5 4-8-3-5-6 6-1-2-7 3-8 7-2 9 7 5 11l-3 3M18 7l3-2M19 12h3M18 17l3 2"/></svg><text x="20" y="167" font-size="11">8 mm</text><svg x="100" y="50" width="60" height="60" viewBox="0 0 24 24" fill="none" stroke="currentColor" stroke-width="2" stroke-linecap="round" stroke-linejoin="round"><path d="M12 18c-5 4-8-3-5-6 6-1-2-7 3-8 7-2 9 7 5 11l-3 3M18 7l3-2M19 12h3M18 17l3 2"/></svg><text x="100" y="167" font-size="11">15 mm</text><svg x="205" y="50" width="100" height="100" viewBox="0 0 24 24" fill="none" stroke="currentColor" stroke-width="2" stroke-linecap="round" stroke-linejoin="round"><path d="M12 18c-5 4-8-3-5-6 6-1-2-7 3-8 7-2 9 7 5 11l-3 3M18 7l3-2M19 12h3M18 17l3 2"/></svg><text x="205" y="167" font-size="11">25 mm</text><text x="10" y="193" font-size="10">Original: learning.action.listen.svg</text></g><g transform="translate(960 887)"><rect x="1" y="1" width="318" height="206" fill="white" stroke="#aaa" stroke-width="1"/><text x="10" y="19" font-size="12">learning.action.speak</text><text x="10" y="36" font-size="12">Speak / Sprechen</text><svg x="20" y="50" width="32" height="32" viewBox="0 0 24 24" fill="none" stroke="currentColor" stroke-width="2" stroke-linecap="round" stroke-linejoin="round"><path d="M6 6c-3 0-4 5-1 6l2 1v7M7 13h4M11 8h5M14 5l3 3-3 3M18 12c2 0 3 2 3 4M16 15c2 0 3 2 3 4"/></svg><text x="20" y="167" font-size="11">8 mm</text><svg x="100" y="50" width="60" height="60" viewBox="0 0 24 24" fill="none" stroke="currentColor" stroke-width="2" stroke-linecap="round" stroke-linejoin="round"><path d="M6 6c-3 0-4 5-1 6l2 1v7M7 13h4M11 8h5M14 5l3 3-3 3M18 12c2 0 3 2 3 4M16 15c2 0 3 2 3 4"/></svg><text x="100" y="167" font-size="11">15 mm</text><svg x="205" y="50" width="100" height="100" viewBox="0 0 24 24" fill="none" stroke="currentColor" stroke-width="2" stroke-linecap="round" stroke-linejoin="round"><path d="M6 6c-3 0-4 5-1 6l2 1v7M7 13h4M11 8h5M14 5l3 3-3 3M18 12c2 0 3 2 3 4M16 15c2 0 3 2 3 4"/></svg><text x="205" y="167" font-size="11">25 mm</text><text x="10" y="193" font-size="10">Original: learning.action.speak.svg</text></g><g transform="translate(0 1095)"><rect x="1" y="1" width="318" height="206" fill="white" stroke="#aaa" stroke-width="1"/><text x="10" y="19" font-size="12">learning.action.choose</text><text x="10" y="36" font-size="12">Choose / Wählen</text><svg x="20" y="50" width="32" height="32" viewBox="0 0 24 24" fill="none" stroke="currentColor" stroke-width="2" stroke-linecap="round" stroke-linejoin="round"><rect x="3" y="4" width="7" height="7" rx="1"/><rect x="14" y="4" width="7" height="7" rx="1"/><path d="M6 8h1M18 8h1M9 21v-6c0-2 2-2 2 0v-3c0-2 2-2 2 0v3l4-1c3 1 2 5 0 7z"/></svg><text x="20" y="167" font-size="11">8 mm</text><svg x="100" y="50" width="60" height="60" viewBox="0 0 24 24" fill="none" stroke="currentColor" stroke-width="2" stroke-linecap="round" stroke-linejoin="round"><rect x="3" y="4" width="7" height="7" rx="1"/><rect x="14" y="4" width="7" height="7" rx="1"/><path d="M6 8h1M18 8h1M9 21v-6c0-2 2-2 2 0v-3c0-2 2-2 2 0v3l4-1c3 1 2 5 0 7z"/></svg><text x="100" y="167" font-size="11">15 mm</text><svg x="205" y="50" width="100" height="100" viewBox="0 0 24 24" fill="none" stroke="currentColor" stroke-width="2" stroke-linecap="round" stroke-linejoin="round"><rect x="3" y="4" width="7" height="7" rx="1"/><rect x="14" y="4" width="7" height="7" rx="1"/><path d="M6 8h1M18 8h1M9 21v-6c0-2 2-2 2 0v-3c0-2 2-2 2 0v3l4-1c3 1 2 5 0 7z"/></svg><text x="205" y="167" font-size="11">25 mm</text><text x="10" y="193" font-size="10">Original: learning.action.choose.svg</text></g><g transform="translate(320 1095)"><rect x="1" y="1" width="318" height="206" fill="white" stroke="#aaa" stroke-width="1"/><text x="10" y="19" font-size="12">learning.action.count</text><text x="10" y="36" font-size="12">Count / Zählen</text><svg x="20" y="50" width="32" height="32" viewBox="0 0 24 24" fill="none" stroke="currentColor" stroke-width="2" stroke-linecap="round" stroke-linejoin="round"><rect x="3" y="3" width="18" height="18" rx="1"/><path d="M3 7h2M9 7h12M3 12h2M13 12h8M3 17h2M17 17h4"/><circle cx="7" cy="7" r="2"/><circle cx="7" cy="12" r="2"/><circle cx="11" cy="12" r="2"/><circle cx="7" cy="17" r="2"/><circle cx="11" cy="17" r="2"/><circle cx="15" cy="17" r="2"/></svg><text x="20" y="167" font-size="11">8 mm</text><svg x="100" y="50" width="60" height="60" viewBox="0 0 24 24" fill="none" stroke="currentColor" stroke-width="2" stroke-linecap="round" stroke-linejoin="round"><rect x="3" y="3" width="18" height="18" rx="1"/><path d="M3 7h2M9 7h12M3 12h2M13 12h8M3 17h2M17 17h4"/><circle cx="7" cy="7" r="2"/><circle cx="7" cy="12" r="2"/><circle cx="11" cy="12" r="2"/><circle cx="7" cy="17" r="2"/><circle cx="11" cy="17" r="2"/><circle cx="15" cy="17" r="2"/></svg><text x="100" y="167" font-size="11">15 mm</text><svg x="205" y="50" width="100" height="100" viewBox="0 0 24 24" fill="none" stroke="currentColor" stroke-width="2" stroke-linecap="round" stroke-linejoin="round"><rect x="3" y="3" width="18" height="18" rx="1"/><path d="M3 7h2M9 7h12M3 12h2M13 12h8M3 17h2M17 17h4"/><circle cx="7" cy="7" r="2"/><circle cx="7" cy="12" r="2"/><circle cx="11" cy="12" r="2"/><circle cx="7" cy="17" r="2"/><circle cx="11" cy="17" r="2"/><circle cx="15" cy="17" r="2"/></svg><text x="205" y="167" font-size="11">25 mm</text><text x="10" y="193" font-size="10">Original: learning.action.count.svg</text></g><g transform="translate(640 1095)"><rect x="1" y="1" width="318" height="206" fill="white" stroke="#aaa" stroke-width="1"/><text x="10" y="19" font-size="12">learning.action.play</text><text x="10" y="36" font-size="12">Play / Spielen</text><svg x="20" y="50" width="32" height="32" viewBox="0 0 24 24" fill="none" stroke="currentColor" stroke-width="2" stroke-linecap="round" stroke-linejoin="round"><circle cx="12" cy="4" r="2"/><circle cx="18" cy="18" r="3"/><path d="M10 8l5 2 3-3M11 8l-4 5M13 10l-3 5-6 4M10 15l5 4M3 5l2 2M19 5l2-2"/></svg><text x="20" y="167" font-size="11">8 mm</text><svg x="100" y="50" width="60" height="60" viewBox="0 0 24 24" fill="none" stroke="currentColor" stroke-width="2" stroke-linecap="round" stroke-linejoin="round"><circle cx="12" cy="4" r="2"/><circle cx="18" cy="18" r="3"/><path d="M10 8l5 2 3-3M11 8l-4 5M13 10l-3 5-6 4M10 15l5 4M3 5l2 2M19 5l2-2"/></svg><text x="100" y="167" font-size="11">15 mm</text><svg x="205" y="50" width="100" height="100" viewBox="0 0 24 24" fill="none" stroke="currentColor" stroke-width="2" stroke-linecap="round" stroke-linejoin="round"><circle cx="12" cy="4" r="2"/><circle cx="18" cy="18" r="3"/><path d="M10 8l5 2 3-3M11 8l-4 5M13 10l-3 5-6 4M10 15l5 4M3 5l2 2M19 5l2-2"/></svg><text x="205" y="167" font-size="11">25 mm</text><text x="10" y="193" font-size="10">Original: learning.action.play.svg</text></g><g transform="translate(960 1095)"><rect x="1" y="1" width="318" height="206" fill="white" stroke="#aaa" stroke-width="1"/><text x="10" y="19" font-size="12">learning.action.tidy</text><text x="10" y="36" font-size="12">Tidy / Aufräumen</text><svg x="20" y="50" width="32" height="32" viewBox="0 0 24 24" fill="none" stroke="currentColor" stroke-width="2" stroke-linecap="round" stroke-linejoin="round"><path d="M3 15h18v6H3zM6 4h5v5H6zM15 3h5v7h-5zM8 10v4M6 12l2 2 2-2M17 11v3M15 12l2 2 2-2M6 18h12"/></svg><text x="20" y="167" font-size="11">8 mm</text><svg x="100" y="50" width="60" height="60" viewBox="0 0 24 24" fill="none" stroke="currentColor" stroke-width="2" stroke-linecap="round" stroke-linejoin="round"><path d="M3 15h18v6H3zM6 4h5v5H6zM15 3h5v7h-5zM8 10v4M6 12l2 2 2-2M17 11v3M15 12l2 2 2-2M6 18h12"/></svg><text x="100" y="167" font-size="11">15 mm</text><svg x="205" y="50" width="100" height="100" viewBox="0 0 24 24" fill="none" stroke="currentColor" stroke-width="2" stroke-linecap="round" stroke-linejoin="round"><path d="M3 15h18v6H3zM6 4h5v5H6zM15 3h5v7h-5zM8 10v4M6 12l2 2 2-2M17 11v3M15 12l2 2 2-2M6 18h12"/></svg><text x="205" y="167" font-size="11">25 mm</text><text x="10" y="193" font-size="10">Original: learning.action.tidy.svg</text></g></svg>